<?xml version="1.0" encoding="UTF-8" standalone="no"?>
<svg
   width="1686"
   height="322"
   version="1.1"
   id="svg16812"
   sodipodi:docname="logo.svg"
   inkscape:version="1.2.1 (9c6d41e, 2022-07-14)"
   inkscape:export-filename="logo.svg"
   inkscape:export-xdpi="96"
   inkscape:export-ydpi="96"
   xmlns:inkscape="http://www.inkscape.org/namespaces/inkscape"
   xmlns:sodipodi="http://sodipodi.sourceforge.net/DTD/sodipodi-0.dtd"
   xmlns="http://www.w3.org/2000/svg"
   xmlns:svg="http://www.w3.org/2000/svg">
  <defs
     id="defs16816" />
  <sodipodi:namedview
     id="namedview16814"
     pagecolor="#ffffff"
     bordercolor="#000000"
     borderopacity="0.25"
     inkscape:showpageshadow="2"
     inkscape:pageopacity="0.0"
     inkscape:pagecheckerboard="0"
     inkscape:deskcolor="#d1d1d1"
     showgrid="false"
     inkscape:zoom="0.60711348"
     inkscape:cx="861.45344"
     inkscape:cy="238.01151"
     inkscape:window-width="1680"
     inkscape:window-height="997"
     inkscape:window-x="0"
     inkscape:window-y="25"
     inkscape:window-maximized="1"
     inkscape:current-layer="svg16812" />
  <g
     aria-label="Karts &amp; Cars"
     id="text19159"
     style="font-size:297.872px;fill:#e5be01;stroke-width:24.8226">
    <path
       d="m 133.08139,123.32966 29.5254,-31.852529 q 12.2174,-11.781071 18.90789,-17.453438 6.69048,-5.672367 16.58076,-12.071961 17.308,-11.635626 31.56164,-11.635626 10.76295,0 10.76295,7.999493 0,6.108703 -2.9089,12.217406 -2.90891,6.108704 -7.85405,11.053845 -8.87217,8.872164 -34.03421,24.14392 -18.90789,11.63563 -29.67084,20.50779 1.74534,10.76296 3.78158,19.48967 2.18168,8.58128 4.79969,15.27176 2.61802,6.54504 7.41771,15.85354 5.38148,10.47207 11.63563,19.19878 15.70809,21.23502 31.27074,27.9255 4.7997,2.32713 4.7997,4.21792 0,3.63613 -5.09059,7.99949 -6.69048,6.98138 -16.28987,10.76296 -9.45395,3.78157 -19.19879,3.78157 -17.74432,0 -31.85252,-9.3085 -14.1082,-9.45394 -21.67135,-26.3256 -8.72672,-19.05334 -11.34474,-46.25161 -0.58178,-4.65425 -0.58178,-10.32662 h -0.58178 q -5.96326,8.58128 -8.58127,13.96275 -2.61802,5.23603 -8.14494,19.05334 -6.54504,17.59888 -12.071962,27.19827 -5.526922,9.45395 -12.653743,15.41721 -6.690484,5.81781 -14.835422,9.74483 -8.144938,3.92703 -13.526414,3.92703 -3.927024,0 -6.54504,-2.90891 -2.618015,-3.05435 -2.618015,-7.27227 0,-2.61801 0.29089,-4.07246 6.83593,-27.48917 14.835422,-55.70556 8.144938,-28.36184 16.580767,-53.37843 8.435828,-25.162042 15.562649,-42.61548 7.12682,-17.453438 11.053848,-22.253133 4.65425,-5.381477 13.8173,-8.726719 9.16306,-3.490688 19.05334,-3.490688 9.01761,0 12.79919,2.47257 3.78157,2.327126 3.78157,7.854048 0,7.563156 -15.4172,50.033192 -1.01812,3.05435 -3.49069,9.59939 -2.32712,6.39959 -3.34524,9.45394 l 0.58178,0.72723 z"
       style="font-family:Forte;-inkscape-font-specification:Forte"
       id="path572" />
    <path
       d="m 358.66707,172.78106 -2.76346,0.87268 q -10.47206,2.9089 -15.12631,2.9089 -5.67237,0 -5.67237,-2.9089 0,-1.01812 2.32713,-5.38148 8.14493,-12.36285 8.14493,-23.27125 0,-6.25415 -2.18168,-11.34474 -2.18168,-5.23603 -4.79969,-5.23603 -2.32713,0 -7.12682,4.94514 -13.52642,14.68998 -21.52591,30.10718 -7.85405,15.41721 -7.85405,27.48917 0,7.99949 3.1998,13.23552 3.34524,5.23603 8.29038,5.23603 4.21792,0 15.7081,-9.01761 11.63562,-9.01761 26.03471,-23.85303 l 3.92702,-3.1998 z m -8.72672,33.30698 v 0.58178 l -0.58178,-0.58178 q -13.52641,15.85354 -24.87115,26.03471 -11.19929,10.03573 -20.79868,15.12632 -9.45394,5.09058 -17.45344,5.09058 -16.28987,0 -26.90738,-10.9084 -10.61751,-10.9084 -10.61751,-27.63461 0,-10.32661 5.23603,-24.43481 5.23604,-14.1082 14.39909,-27.63461 15.27176,-22.10769 38.39756,-37.52489 23.85304,-15.85354 45.96072,-15.85354 18.617,0 30.54352,7.7086 12.07196,7.56316 12.07196,19.19878 0,8.58128 -5.96326,18.18067 7.85405,0 9.89029,1.74534 2.03623,1.5999 2.03623,7.7086 0,-0.58178 -0.72723,5.96326 -0.87267,14.39909 -0.87267,26.90738 0,6.54504 0.14545,9.89028 0.14544,3.34525 0.58178,7.70861 0.43633,4.36336 0.87267,6.98137 1.16356,6.83593 3.78158,13.52642 -8.72672,8.58127 -16.72621,12.65374 -7.9995,3.92702 -16.28988,3.92702 -22.39858,0 -22.39858,-37.52489 0,-4.36336 0.29089,-6.83593 z"
       style="font-family:Forte;-inkscape-font-specification:Forte"
       id="path569" />
    <path
       d="m 463.96947,204.05181 -0.58178,2.9089 q 0,2.47257 -0.58178,7.12682 -0.58179,7.12682 -1.5999,11.63563 -1.01812,4.5088 -3.05435,7.56316 -2.03624,2.9089 -5.52693,6.25414 -10.6175,9.74484 -21.38046,9.74484 -8.72672,0 -12.94463,-6.39959 -4.07247,-6.3996 -4.07247,-20.65324 0,-11.34473 2.47257,-27.9255 2.61802,-16.72621 6.25415,-29.96174 l 1.16356,-3.78157 q 0,-0.87268 0.87267,-3.63614 5.38148,-19.78056 9.89028,-29.2345 4.50881,-9.5994 10.9084,-15.41721 5.67237,-4.5088 12.79919,-4.5088 10.32662,0 12.5083,12.50829 2.03623,-1.74534 3.92702,-4.07247 4.21792,-5.09058 6.54504,-6.69048 2.32713,-1.74534 5.38148,-1.74534 12.5083,0 12.5083,24.7257 0,13.52641 -2.90891,26.18016 -2.90891,12.65374 -7.41771,20.65323 -4.36336,7.9995 -8.72672,7.9995 -4.7997,0 -4.7997,-18.18067 0,-9.59939 -1.16356,-14.98087 -1.01812,-5.52692 -3.34524,-8.58127 -4.36336,8.14494 -5.67237,37.234 -1.01812,16.87166 -1.45445,21.23502 z"
       style="font-family:Forte;-inkscape-font-specification:Forte"
       id="path566" />
    <path
       d="m 538.87383,107.76701 0.58178,-1.74535 q 9.59939,-27.052826 16.58077,-38.10667 3.34524,-5.236032 9.3085,-9.308501 11.19929,-7.12682 21.08957,-7.12682 5.81781,0 8.87216,2.618016 3.05435,2.618015 3.05435,7.563156 0,3.345242 -4.36335,13.67186 -7.41772,17.162547 -11.05385,32.143419 2.47257,0.29089 4.7997,0.87267 8.72672,1.30901 11.49018,3.05435 2.76346,1.5999 2.76346,5.96326 0,7.7086 -3.92703,14.25364 -3.92702,6.54504 -10.32661,9.59939 -4.7997,2.18168 -15.56265,2.90891 -1.89079,5.67236 -4.21792,15.56264 -1.309,8.72672 -2.9089,24.14393 -0.87267,5.67236 -0.87267,10.61751 0,22.98036 22.25313,22.98036 h 0.87267 0.43634 q 2.61801,0 2.61801,0.87267 0,2.32712 -4.94514,7.85404 -4.94514,5.52693 -10.9084,9.74484 -6.39959,4.36336 -13.96275,6.98138 -7.56315,2.61801 -13.67186,2.61801 -15.27176,0 -24.87115,-10.32662 -9.45394,-10.32661 -9.45394,-27.34372 0,-7.27226 2.47257,-19.05333 2.61801,-11.78107 7.99949,-31.56164 0.87267,-3.49068 1.89079,-7.27226 1.01812,-3.92703 1.16356,-4.65425 -5.81781,-0.14545 -8.29038,-2.47257 -2.47257,-2.32713 -2.47257,-7.56316 0,-9.16305 6.98137,-17.30799 7.12682,-8.14494 16.58077,-10.18117 z"
       style="font-family:Forte;-inkscape-font-specification:Forte"
       id="path563" />
    <path
       d="m 657.12083,254.66678 q 8.58128,-0.43634 15.56265,-8.29039 7.12682,-7.99949 7.12682,-17.30799 0,-6.39959 -4.21791,-10.18117 -4.50881,-4.50881 -20.2169,-8.87217 -23.1258,-6.69048 -30.10718,-14.98086 -6.54504,-6.69049 -6.54504,-15.99899 0,-16.72621 12.07196,-33.45242 12.21741,-16.72621 31.1253,-27.34372 18.90789,-10.76295 38.10667,-10.76295 9.3085,0 17.45344,4.36336 8.14494,4.36335 12.94463,11.63562 4.7997,7.12682 4.7997,15.56265 0,8.29038 -5.23603,17.16255 -5.23603,8.87216 -13.23553,14.83542 -7.85404,5.81781 -14.98086,5.81781 -4.07247,0 -7.12682,-1.74534 -2.90891,-1.74535 -2.90891,-3.78158 0,-2.03623 1.16356,-5.96326 3.1998,-12.5083 3.1998,-21.8168 0,-9.16305 -5.52692,-17.30799 -7.12682,4.94514 -9.3085,7.85405 -5.52693,6.39959 -8.58128,14.54453 -3.34524,8.29038 -3.34524,15.70809 0,5.23604 2.32713,8.43583 2.47257,3.05435 7.85404,5.23603 5.52693,2.18168 16.58077,4.7997 18.47155,4.50881 26.03471,8.72672 1.74534,1.01812 5.38148,4.21791 5.52692,5.96326 5.52692,15.41721 0,10.03572 -6.25415,20.36234 -6.25415,10.18117 -19.34423,21.08957 -13.96275,11.78107 -27.78005,16.87166 -13.81731,5.09059 -30.54352,5.09059 -16.14443,0 -25.45293,-6.3996 -9.16305,-6.39959 -9.16305,-17.45344 0,-7.85404 6.1087,-15.85354 6.1087,-8.14493 15.12631,-13.23552 9.16306,-5.09059 17.88978,-5.09059 6.54504,0 6.54504,2.90891 0,1.45445 -1.89079,4.7997 -5.67237,10.18117 -5.67237,18.76244 0,6.1087 4.5088,11.63563 z"
       style="font-family:Forte;-inkscape-font-specification:Forte"
       id="path560" />
    <path
       d="m 906.70506,125.94767 q 6.39959,-5.52692 11.34473,-13.38097 4.94514,-7.99949 7.56316,-16.871655 2.61802,-8.872164 2.61802,-18.32611 0,-10.617508 -4.7997,-10.617508 -4.7997,0 -9.59939,5.672368 -4.65425,5.672367 -7.56316,14.544531 -2.76346,8.872165 -2.76346,19.053334 0,5.38148 0.72723,9.74484 0.72722,4.36336 2.47257,10.18117 z m -25.30749,54.83289 q -5.09058,6.39959 -7.12682,11.49018 -2.03623,4.94514 -2.03623,11.49018 0,7.99949 5.23603,13.52641 5.23603,5.52692 13.23552,5.52692 6.69049,0 14.25364,-4.5088 -2.47257,-2.76346 -3.63613,-4.7997 -2.76346,-3.78158 -5.52692,-8.29038 -2.76346,-4.50881 -10.18117,-17.30799 -1.5999,-2.76346 -2.47257,-4.07247 -0.72723,-1.45446 -1.74535,-3.05435 z m 35.77955,51.48764 -7.41771,4.5088 q -15.56265,8.43583 -25.45293,11.78107 -9.89028,3.49069 -20.50779,3.49069 -16.28988,0 -26.76194,-9.59939 -10.47206,-9.59939 -10.47206,-24.43481 0,-12.21741 9.01761,-25.30749 9.01761,-13.23552 29.67084,-30.97985 2.90891,-2.47257 4.07247,-3.49069 1.30901,-1.01812 2.61802,-2.18168 -3.92703,-18.47155 -3.92703,-31.85252 0,-19.92601 8.72672,-37.524894 8.72672,-17.744329 23.12581,-28.216392 14.54453,-10.472063 30.68896,-10.472063 12.07196,0 21.38046,4.072469 9.3085,4.072469 14.25364,11.781071 4.94514,7.563156 4.94514,17.453438 0,7.272266 -3.05435,14.689977 -3.05435,7.272264 -8.29038,13.380974 -9.16306,10.6175 -16.14443,16.87165 -6.98138,6.25415 -28.21639,22.98036 3.34524,7.99949 8.58127,15.12631 3.05435,4.50881 7.12682,9.30851 6.83593,7.99949 17.30799,17.0171 2.32713,-0.72723 4.7997,-3.05435 1.16356,-1.16357 1.74534,-1.16357 1.30901,0 2.32713,1.45446 0.58178,1.16356 0.58178,1.45445 0,0.87267 -1.45445,2.76346 -1.30901,1.30901 -2.03624,3.1998 12.5083,9.45394 22.54403,14.98087 8.14493,3.78157 8.14493,6.54503 0,3.63614 -3.19979,9.74484 -3.05435,6.1087 -7.85405,11.05384 -4.94514,4.94515 -11.63563,7.9995 -6.54503,3.05435 -12.50829,3.05435 -6.3996,0 -11.49018,-1.5999 -4.94514,-1.5999 -9.89028,-4.94514 -4.94515,-3.49069 -11.34474,-9.89028 z"
       style="fill:#ffffff"
       id="path557" />
    <path
       d="m 1184.9419,142.96477 q 5.6724,-14.54453 9.5994,-32.57975 4.0725,-18.180662 4.0725,-29.961733 0,-7.708602 -3.6362,-7.708602 -3.3452,0 -12.2174,8.872165 -13.2355,14.253641 -23.5621,32.87064 -10.3266,18.47156 -15.8536,37.81578 -5.5269,19.34423 -5.5269,37.81579 0,14.54453 3.0544,19.926 3.1998,5.38148 11.9265,5.38148 7.5631,0 18.7624,-4.21791 25.3075,-10.03573 53.5239,-28.65273 12.5083,-7.99949 15.8535,-7.99949 4.7997,0 4.7997,4.79969 v 0.29089 q -0.7272,6.54504 -4.5088,14.83543 -7.5631,15.99898 -13.09,20.94412 -9.3085,8.29038 -25.5984,16.28988 -16.1445,7.99949 -33.1616,13.09008 -17.0171,5.09058 -28.5072,5.09058 -13.2356,0 -25.0166,-4.94514 -11.7811,-5.09059 -20.5078,-13.8173 -8.7267,-8.72672 -13.6719,-20.36235 -4.9451,-11.63562 -4.9451,-24.87115 0,-10.03573 3.1998,-21.67135 3.1998,-11.78107 9.3085,-24.58026 6.1087,-12.79919 13.8173,-23.99848 4.5088,-6.69048 9.3085,-12.79918 4.9451,-6.108707 10.7629,-11.92652 5.9633,-5.817813 12.9447,-11.19929 6.9813,-5.381476 12.7992,-9.163055 10.1811,-6.835929 21.0895,-11.926516 10.9084,-5.090586 20.2169,-7.563156 9.3085,-2.47257 17.0171,-2.47257 19.0534,0 29.8163,9.890281 10.763,9.890282 10.763,27.34372 0,18.326106 -9.0176,38.397566 -9.0176,19.92601 -23.9985,34.90687 -10.3266,10.61751 -20.5078,16.72621 -10.1812,6.10871 -18.3261,6.10871 -7.1268,0 -7.1268,-6.83593 0,-3.1998 3.927,-8.87217 5.5269,-7.85404 12.2174,-23.27125 z"
       style="fill:#cc0000"
       id="path554" />
    <path
       d="m 1367.9121,172.78106 -2.7634,0.87268 q -10.4721,2.9089 -15.1264,2.9089 -5.6723,0 -5.6723,-2.9089 0,-1.01812 2.3271,-5.38148 8.1449,-12.36285 8.1449,-23.27125 0,-6.25415 -2.1816,-11.34474 -2.1817,-5.23603 -4.7997,-5.23603 -2.3272,0 -7.1269,4.94514 -13.5264,14.68998 -21.5259,30.10718 -7.854,15.41721 -7.854,27.48917 0,7.99949 3.1998,13.23552 3.3452,5.23603 8.2904,5.23603 4.2179,0 15.7081,-9.01761 11.6356,-9.01761 26.0347,-23.85303 l 3.927,-3.1998 z m -8.7267,33.30698 v 0.58178 l -0.5818,-0.58178 q -13.5264,15.85354 -24.8711,26.03471 -11.1993,10.03573 -20.7987,15.12632 -9.454,5.09058 -17.4535,5.09058 -16.2898,0 -26.9073,-10.9084 -10.6175,-10.9084 -10.6175,-27.63461 0,-10.32661 5.236,-24.43481 5.236,-14.1082 14.3991,-27.63461 15.2717,-22.10769 38.3975,-37.52489 23.8531,-15.85354 45.9608,-15.85354 18.617,0 30.5435,7.7086 12.0719,7.56316 12.0719,19.19878 0,8.58128 -5.9632,18.18067 7.854,0 9.8903,1.74534 2.0362,1.5999 2.0362,7.7086 0,-0.58178 -0.7272,5.96326 -0.8727,14.39909 -0.8727,26.90738 0,6.54504 0.1454,9.89028 0.1455,3.34525 0.5818,7.70861 0.4364,4.36336 0.8727,6.98137 1.1636,6.83593 3.7816,13.52642 -8.7268,8.58127 -16.7262,12.65374 -7.9995,3.92702 -16.2899,3.92702 -22.3986,0 -22.3986,-37.52489 0,-4.36336 0.2909,-6.83593 z"
       style="fill:#cc0000"
       id="path551" />
    <path
       d="m 1473.2146,204.05181 -0.5818,2.9089 q 0,2.47257 -0.5818,7.12682 -0.5818,7.12682 -1.5999,11.63563 -1.0181,4.5088 -3.0543,7.56316 -2.0363,2.9089 -5.5269,6.25414 -10.6176,9.74484 -21.3805,9.74484 -8.7267,0 -12.9446,-6.39959 -4.0725,-6.3996 -4.0725,-20.65324 0,-11.34473 2.4726,-27.9255 2.618,-16.72621 6.2541,-29.96174 l 1.1636,-3.78157 q 0,-0.87268 0.8726,-3.63614 5.3815,-19.78056 9.8903,-29.2345 4.5088,-9.5994 10.9084,-15.41721 5.6724,-4.5088 12.7992,-4.5088 10.3266,0 12.5083,12.50829 2.0362,-1.74534 3.927,-4.07247 4.2179,-5.09058 6.5451,-6.69048 2.3271,-1.74534 5.3814,-1.74534 12.5083,0 12.5083,24.7257 0,13.52641 -2.9089,26.18016 -2.9089,12.65374 -7.4177,20.65323 -4.3633,7.9995 -8.7267,7.9995 -4.7997,0 -4.7997,-18.18067 0,-9.59939 -1.1636,-14.98087 -1.0181,-5.52692 -3.3452,-8.58127 -4.3634,8.14494 -5.6724,37.234 -1.0181,16.87166 -1.4544,21.23502 z"
       style="fill:#cc0000"
       id="path548" />
    <path
       d="m 1563.827,254.66678 q 8.5813,-0.43634 15.5627,-8.29039 7.1268,-7.99949 7.1268,-17.30799 0,-6.39959 -4.2179,-10.18117 -4.5088,-4.50881 -20.2169,-8.87217 -23.1258,-6.69048 -30.1072,-14.98086 -6.5451,-6.69049 -6.5451,-15.99899 0,-16.72621 12.072,-33.45242 12.2174,-16.72621 31.1253,-27.34372 18.9079,-10.76295 38.1067,-10.76295 9.3085,0 17.4534,4.36336 8.145,4.36335 12.9447,11.63562 4.7996,7.12682 4.7996,15.56265 0,8.29038 -5.236,17.16255 -5.236,8.87216 -13.2355,14.83542 -7.8541,5.81781 -14.9809,5.81781 -4.0724,0 -7.1268,-1.74534 -2.9089,-1.74535 -2.9089,-3.78158 0,-2.03623 1.1636,-5.96326 3.1998,-12.5083 3.1998,-21.8168 0,-9.16305 -5.527,-17.30799 -7.1268,4.94514 -9.3085,7.85405 -5.5269,6.39959 -8.5812,14.54453 -3.3453,8.29038 -3.3453,15.70809 0,5.23604 2.3271,8.43583 2.4726,3.05435 7.8541,5.23603 5.5269,2.18168 16.5808,4.7997 18.4715,4.50881 26.0347,8.72672 1.7453,1.01812 5.3814,4.21791 5.527,5.96326 5.527,15.41721 0,10.03572 -6.2542,20.36234 -6.2541,10.18117 -19.3442,21.08957 -13.9628,11.78107 -27.7801,16.87166 -13.8173,5.09059 -30.5435,5.09059 -16.1444,0 -25.4529,-6.3996 -9.1631,-6.39959 -9.1631,-17.45344 0,-7.85404 6.1087,-15.85354 6.1087,-8.14493 15.1263,-13.23552 9.1631,-5.09059 17.8898,-5.09059 6.5451,0 6.5451,2.90891 0,1.45445 -1.8908,4.7997 -5.6724,10.18117 -5.6724,18.76244 0,6.1087 4.5088,11.63563 z"
       style="fill:#cc0000"
       id="path545" />
  </g>
</svg>
